<mxfile host="app.diagrams.net" agent="Mozilla/5.0 (Windows NT 10.0; Win64; x64) AppleWebKit/537.36 (KHTML, like Gecko) Chrome/132.0.0.0 Safari/537.36" version="26.0.10">
  <diagram name="Page-1" id="RNM2842ZzNuiiqNFb6Is">
    <mxGraphModel dx="1908" dy="1210" grid="1" gridSize="10" guides="1" tooltips="1" connect="1" arrows="1" fold="1" page="1" pageScale="1" pageWidth="850" pageHeight="1100" math="0" shadow="0">
      <root>
        <mxCell id="0" />
        <mxCell id="1" parent="0" />
        <mxCell id="C7eEBjci7BhS2FGRMZVI-1" value="Bank" style="swimlane;fontStyle=1;align=center;verticalAlign=top;childLayout=stackLayout;horizontal=1;startSize=28.571428571428573;horizontalStack=0;resizeParent=1;resizeParentMax=0;resizeLast=0;collapsible=0;marginBottom=0;" vertex="1" parent="1">
          <mxGeometry x="728" y="20" width="499" height="384.57142857142856" as="geometry" />
        </mxCell>
        <mxCell id="C7eEBjci7BhS2FGRMZVI-2" value="- string __Name" style="text;strokeColor=none;fillColor=none;align=left;verticalAlign=top;spacingLeft=4;spacingRight=4;overflow=hidden;rotatable=0;points=[[0,0.5],[1,0.5]];portConstraint=eastwest;" vertex="1" parent="C7eEBjci7BhS2FGRMZVI-1">
          <mxGeometry y="28.571428571428573" width="499" height="29" as="geometry" />
        </mxCell>
        <mxCell id="C7eEBjci7BhS2FGRMZVI-3" value="- list __User" style="text;strokeColor=none;fillColor=none;align=left;verticalAlign=top;spacingLeft=4;spacingRight=4;overflow=hidden;rotatable=0;points=[[0,0.5],[1,0.5]];portConstraint=eastwest;" vertex="1" parent="C7eEBjci7BhS2FGRMZVI-1">
          <mxGeometry y="57.57142857142857" width="499" height="29" as="geometry" />
        </mxCell>
        <mxCell id="C7eEBjci7BhS2FGRMZVI-4" value="- list __ATMmachine" style="text;strokeColor=none;fillColor=none;align=left;verticalAlign=top;spacingLeft=4;spacingRight=4;overflow=hidden;rotatable=0;points=[[0,0.5],[1,0.5]];portConstraint=eastwest;" vertex="1" parent="C7eEBjci7BhS2FGRMZVI-1">
          <mxGeometry y="86.57142857142857" width="499" height="29" as="geometry" />
        </mxCell>
        <mxCell id="C7eEBjci7BhS2FGRMZVI-5" value="- list __Seller" style="text;strokeColor=none;fillColor=none;align=left;verticalAlign=top;spacingLeft=4;spacingRight=4;overflow=hidden;rotatable=0;points=[[0,0.5],[1,0.5]];portConstraint=eastwest;" vertex="1" parent="C7eEBjci7BhS2FGRMZVI-1">
          <mxGeometry y="115.57142857142857" width="499" height="29" as="geometry" />
        </mxCell>
        <mxCell id="C7eEBjci7BhS2FGRMZVI-7" style="line;strokeWidth=1;fillColor=none;align=left;verticalAlign=middle;spacingTop=-1;spacingLeft=3;spacingRight=3;rotatable=0;labelPosition=right;points=[];portConstraint=eastwest;strokeColor=inherit;" vertex="1" parent="C7eEBjci7BhS2FGRMZVI-1">
          <mxGeometry y="144.57142857142856" width="499" height="8" as="geometry" />
        </mxCell>
        <mxCell id="C7eEBjci7BhS2FGRMZVI-8" value="+ add_user(user)" style="text;strokeColor=none;fillColor=none;align=left;verticalAlign=top;spacingLeft=4;spacingRight=4;overflow=hidden;rotatable=0;points=[[0,0.5],[1,0.5]];portConstraint=eastwest;" vertex="1" parent="C7eEBjci7BhS2FGRMZVI-1">
          <mxGeometry y="152.57142857142856" width="499" height="29" as="geometry" />
        </mxCell>
        <mxCell id="C7eEBjci7BhS2FGRMZVI-9" value="+ add_ATMmachine(atmmachine)" style="text;strokeColor=none;fillColor=none;align=left;verticalAlign=top;spacingLeft=4;spacingRight=4;overflow=hidden;rotatable=0;points=[[0,0.5],[1,0.5]];portConstraint=eastwest;" vertex="1" parent="C7eEBjci7BhS2FGRMZVI-1">
          <mxGeometry y="181.57142857142856" width="499" height="29" as="geometry" />
        </mxCell>
        <mxCell id="C7eEBjci7BhS2FGRMZVI-10" value="+ add_seller(seller)" style="text;strokeColor=none;fillColor=none;align=left;verticalAlign=top;spacingLeft=4;spacingRight=4;overflow=hidden;rotatable=0;points=[[0,0.5],[1,0.5]];portConstraint=eastwest;" vertex="1" parent="C7eEBjci7BhS2FGRMZVI-1">
          <mxGeometry y="210.57142857142856" width="499" height="29" as="geometry" />
        </mxCell>
        <mxCell id="C7eEBjci7BhS2FGRMZVI-11" value="+ search_user_from_id(citizen_id: str)" style="text;strokeColor=none;fillColor=none;align=left;verticalAlign=top;spacingLeft=4;spacingRight=4;overflow=hidden;rotatable=0;points=[[0,0.5],[1,0.5]];portConstraint=eastwest;" vertex="1" parent="C7eEBjci7BhS2FGRMZVI-1">
          <mxGeometry y="239.57142857142856" width="499" height="29" as="geometry" />
        </mxCell>
        <mxCell id="C7eEBjci7BhS2FGRMZVI-12" value="+ search_seller(seller_name: str)" style="text;strokeColor=none;fillColor=none;align=left;verticalAlign=top;spacingLeft=4;spacingRight=4;overflow=hidden;rotatable=0;points=[[0,0.5],[1,0.5]];portConstraint=eastwest;" vertex="1" parent="C7eEBjci7BhS2FGRMZVI-1">
          <mxGeometry y="268.57142857142856" width="499" height="29" as="geometry" />
        </mxCell>
        <mxCell id="C7eEBjci7BhS2FGRMZVI-13" value="+ search_atm_machine(machine_id: str)" style="text;strokeColor=none;fillColor=none;align=left;verticalAlign=top;spacingLeft=4;spacingRight=4;overflow=hidden;rotatable=0;points=[[0,0.5],[1,0.5]];portConstraint=eastwest;" vertex="1" parent="C7eEBjci7BhS2FGRMZVI-1">
          <mxGeometry y="297.57142857142856" width="499" height="29" as="geometry" />
        </mxCell>
        <mxCell id="C7eEBjci7BhS2FGRMZVI-14" value="+ search_account_from_card(card_number: str)" style="text;strokeColor=none;fillColor=none;align=left;verticalAlign=top;spacingLeft=4;spacingRight=4;overflow=hidden;rotatable=0;points=[[0,0.5],[1,0.5]];portConstraint=eastwest;" vertex="1" parent="C7eEBjci7BhS2FGRMZVI-1">
          <mxGeometry y="326.57142857142856" width="499" height="29" as="geometry" />
        </mxCell>
        <mxCell id="C7eEBjci7BhS2FGRMZVI-15" value="+ search_account_from_account_number(account_number: str)" style="text;strokeColor=none;fillColor=none;align=left;verticalAlign=top;spacingLeft=4;spacingRight=4;overflow=hidden;rotatable=0;points=[[0,0.5],[1,0.5]];portConstraint=eastwest;" vertex="1" parent="C7eEBjci7BhS2FGRMZVI-1">
          <mxGeometry y="355.57142857142856" width="499" height="29" as="geometry" />
        </mxCell>
        <mxCell id="C7eEBjci7BhS2FGRMZVI-16" value="User" style="swimlane;fontStyle=1;align=center;verticalAlign=top;childLayout=stackLayout;horizontal=1;startSize=31.11111111111111;horizontalStack=0;resizeParent=1;resizeParentMax=0;resizeLast=0;collapsible=0;marginBottom=0;" vertex="1" parent="1">
          <mxGeometry x="20" y="840" width="327" height="194.11111111111111" as="geometry" />
        </mxCell>
        <mxCell id="C7eEBjci7BhS2FGRMZVI-17" value="- string __citizen_id" style="text;strokeColor=none;fillColor=none;align=left;verticalAlign=top;spacingLeft=4;spacingRight=4;overflow=hidden;rotatable=0;points=[[0,0.5],[1,0.5]];portConstraint=eastwest;" vertex="1" parent="C7eEBjci7BhS2FGRMZVI-16">
          <mxGeometry y="31.11111111111111" width="327" height="31" as="geometry" />
        </mxCell>
        <mxCell id="C7eEBjci7BhS2FGRMZVI-18" value="- string __name" style="text;strokeColor=none;fillColor=none;align=left;verticalAlign=top;spacingLeft=4;spacingRight=4;overflow=hidden;rotatable=0;points=[[0,0.5],[1,0.5]];portConstraint=eastwest;" vertex="1" parent="C7eEBjci7BhS2FGRMZVI-16">
          <mxGeometry y="62.111111111111114" width="327" height="31" as="geometry" />
        </mxCell>
        <mxCell id="C7eEBjci7BhS2FGRMZVI-19" value="- list __account_list" style="text;strokeColor=none;fillColor=none;align=left;verticalAlign=top;spacingLeft=4;spacingRight=4;overflow=hidden;rotatable=0;points=[[0,0.5],[1,0.5]];portConstraint=eastwest;" vertex="1" parent="C7eEBjci7BhS2FGRMZVI-16">
          <mxGeometry y="93.11111111111111" width="327" height="31" as="geometry" />
        </mxCell>
        <mxCell id="C7eEBjci7BhS2FGRMZVI-23" style="line;strokeWidth=1;fillColor=none;align=left;verticalAlign=middle;spacingTop=-1;spacingLeft=3;spacingRight=3;rotatable=0;labelPosition=right;points=[];portConstraint=eastwest;strokeColor=inherit;" vertex="1" parent="C7eEBjci7BhS2FGRMZVI-16">
          <mxGeometry y="124.11111111111111" width="327" height="8" as="geometry" />
        </mxCell>
        <mxCell id="C7eEBjci7BhS2FGRMZVI-24" value="+ add_account(account)" style="text;strokeColor=none;fillColor=none;align=left;verticalAlign=top;spacingLeft=4;spacingRight=4;overflow=hidden;rotatable=0;points=[[0,0.5],[1,0.5]];portConstraint=eastwest;" vertex="1" parent="C7eEBjci7BhS2FGRMZVI-16">
          <mxGeometry y="132.11111111111111" width="327" height="31" as="geometry" />
        </mxCell>
        <mxCell id="C7eEBjci7BhS2FGRMZVI-25" value="+ search_account(account_number: str)" style="text;strokeColor=none;fillColor=none;align=left;verticalAlign=top;spacingLeft=4;spacingRight=4;overflow=hidden;rotatable=0;points=[[0,0.5],[1,0.5]];portConstraint=eastwest;" vertex="1" parent="C7eEBjci7BhS2FGRMZVI-16">
          <mxGeometry y="163.11111111111111" width="327" height="31" as="geometry" />
        </mxCell>
        <mxCell id="C7eEBjci7BhS2FGRMZVI-112" value="" style="edgeStyle=orthogonalEdgeStyle;rounded=0;orthogonalLoop=1;jettySize=auto;html=1;endArrow=none;startFill=0;dashed=1;" edge="1" parent="1" source="C7eEBjci7BhS2FGRMZVI-26" target="C7eEBjci7BhS2FGRMZVI-97">
          <mxGeometry relative="1" as="geometry" />
        </mxCell>
        <mxCell id="C7eEBjci7BhS2FGRMZVI-26" value="Account" style="swimlane;fontStyle=1;align=center;verticalAlign=top;childLayout=stackLayout;horizontal=1;startSize=28.923076923076923;horizontalStack=0;resizeParent=1;resizeParentMax=0;resizeLast=0;collapsible=0;marginBottom=0;" vertex="1" parent="1">
          <mxGeometry x="819" y="1178" width="372" height="268.9230769230769" as="geometry" />
        </mxCell>
        <mxCell id="C7eEBjci7BhS2FGRMZVI-27" value="- string __account_number" style="text;strokeColor=none;fillColor=none;align=left;verticalAlign=top;spacingLeft=4;spacingRight=4;overflow=hidden;rotatable=0;points=[[0,0.5],[1,0.5]];portConstraint=eastwest;" vertex="1" parent="C7eEBjci7BhS2FGRMZVI-26">
          <mxGeometry y="28.923076923076923" width="372" height="29" as="geometry" />
        </mxCell>
        <mxCell id="C7eEBjci7BhS2FGRMZVI-28" value="- User __owner" style="text;strokeColor=none;fillColor=none;align=left;verticalAlign=top;spacingLeft=4;spacingRight=4;overflow=hidden;rotatable=0;points=[[0,0.5],[1,0.5]];portConstraint=eastwest;" vertex="1" parent="C7eEBjci7BhS2FGRMZVI-26">
          <mxGeometry y="57.92307692307692" width="372" height="29" as="geometry" />
        </mxCell>
        <mxCell id="C7eEBjci7BhS2FGRMZVI-29" value="- float __balance" style="text;strokeColor=none;fillColor=none;align=left;verticalAlign=top;spacingLeft=4;spacingRight=4;overflow=hidden;rotatable=0;points=[[0,0.5],[1,0.5]];portConstraint=eastwest;" vertex="1" parent="C7eEBjci7BhS2FGRMZVI-26">
          <mxGeometry y="86.92307692307692" width="372" height="29" as="geometry" />
        </mxCell>
        <mxCell id="C7eEBjci7BhS2FGRMZVI-30" value="- list __transactions_history" style="text;strokeColor=none;fillColor=none;align=left;verticalAlign=top;spacingLeft=4;spacingRight=4;overflow=hidden;rotatable=0;points=[[0,0.5],[1,0.5]];portConstraint=eastwest;" vertex="1" parent="C7eEBjci7BhS2FGRMZVI-26">
          <mxGeometry y="115.92307692307692" width="372" height="29" as="geometry" />
        </mxCell>
        <mxCell id="C7eEBjci7BhS2FGRMZVI-35" style="line;strokeWidth=1;fillColor=none;align=left;verticalAlign=middle;spacingTop=-1;spacingLeft=3;spacingRight=3;rotatable=0;labelPosition=right;points=[];portConstraint=eastwest;strokeColor=inherit;" vertex="1" parent="C7eEBjci7BhS2FGRMZVI-26">
          <mxGeometry y="144.9230769230769" width="372" height="8" as="geometry" />
        </mxCell>
        <mxCell id="C7eEBjci7BhS2FGRMZVI-36" value="+ add_transaction(transaction: str)" style="text;strokeColor=none;fillColor=none;align=left;verticalAlign=top;spacingLeft=4;spacingRight=4;overflow=hidden;rotatable=0;points=[[0,0.5],[1,0.5]];portConstraint=eastwest;" vertex="1" parent="C7eEBjci7BhS2FGRMZVI-26">
          <mxGeometry y="152.9230769230769" width="372" height="29" as="geometry" />
        </mxCell>
        <mxCell id="C7eEBjci7BhS2FGRMZVI-37" value="+ transfer(amount: float, receiver: Account)" style="text;strokeColor=none;fillColor=none;align=left;verticalAlign=top;spacingLeft=4;spacingRight=4;overflow=hidden;rotatable=0;points=[[0,0.5],[1,0.5]];portConstraint=eastwest;" vertex="1" parent="C7eEBjci7BhS2FGRMZVI-26">
          <mxGeometry y="181.9230769230769" width="372" height="29" as="geometry" />
        </mxCell>
        <mxCell id="C7eEBjci7BhS2FGRMZVI-38" value="+ operator+(amount: float)" style="text;strokeColor=none;fillColor=none;align=left;verticalAlign=top;spacingLeft=4;spacingRight=4;overflow=hidden;rotatable=0;points=[[0,0.5],[1,0.5]];portConstraint=eastwest;" vertex="1" parent="C7eEBjci7BhS2FGRMZVI-26">
          <mxGeometry y="210.9230769230769" width="372" height="29" as="geometry" />
        </mxCell>
        <mxCell id="C7eEBjci7BhS2FGRMZVI-39" value="+ operator-(amount: float)" style="text;strokeColor=none;fillColor=none;align=left;verticalAlign=top;spacingLeft=4;spacingRight=4;overflow=hidden;rotatable=0;points=[[0,0.5],[1,0.5]];portConstraint=eastwest;" vertex="1" parent="C7eEBjci7BhS2FGRMZVI-26">
          <mxGeometry y="239.9230769230769" width="372" height="29" as="geometry" />
        </mxCell>
        <mxCell id="C7eEBjci7BhS2FGRMZVI-40" value="SavingsAccount" style="swimlane;fontStyle=1;align=center;verticalAlign=top;childLayout=stackLayout;horizontal=1;startSize=35.55555555555556;horizontalStack=0;resizeParent=1;resizeParentMax=0;resizeLast=0;collapsible=0;marginBottom=0;" vertex="1" parent="1">
          <mxGeometry x="397" y="900" width="229" height="161.55555555555554" as="geometry" />
        </mxCell>
        <mxCell id="C7eEBjci7BhS2FGRMZVI-41" value="+interest_rate: float" style="text;strokeColor=none;fillColor=none;align=left;verticalAlign=top;spacingLeft=4;spacingRight=4;overflow=hidden;rotatable=0;points=[[0,0.5],[1,0.5]];portConstraint=eastwest;" vertex="1" parent="C7eEBjci7BhS2FGRMZVI-40">
          <mxGeometry y="35.55555555555556" width="229" height="36" as="geometry" />
        </mxCell>
        <mxCell id="C7eEBjci7BhS2FGRMZVI-42" value="+type: str" style="text;strokeColor=none;fillColor=none;align=left;verticalAlign=top;spacingLeft=4;spacingRight=4;overflow=hidden;rotatable=0;points=[[0,0.5],[1,0.5]];portConstraint=eastwest;" vertex="1" parent="C7eEBjci7BhS2FGRMZVI-40">
          <mxGeometry y="71.55555555555556" width="229" height="36" as="geometry" />
        </mxCell>
        <mxCell id="C7eEBjci7BhS2FGRMZVI-43" value="+card: None" style="text;strokeColor=none;fillColor=none;align=left;verticalAlign=top;spacingLeft=4;spacingRight=4;overflow=hidden;rotatable=0;points=[[0,0.5],[1,0.5]];portConstraint=eastwest;" vertex="1" parent="C7eEBjci7BhS2FGRMZVI-40">
          <mxGeometry y="107.55555555555556" width="229" height="36" as="geometry" />
        </mxCell>
        <mxCell id="C7eEBjci7BhS2FGRMZVI-44" style="line;strokeWidth=1;fillColor=none;align=left;verticalAlign=middle;spacingTop=-1;spacingLeft=3;spacingRight=3;rotatable=0;labelPosition=right;points=[];portConstraint=eastwest;strokeColor=inherit;" vertex="1" parent="C7eEBjci7BhS2FGRMZVI-40">
          <mxGeometry y="143.55555555555554" width="229" height="18" as="geometry" />
        </mxCell>
        <mxCell id="C7eEBjci7BhS2FGRMZVI-45" value="FixDepositAccount" style="swimlane;fontStyle=1;align=center;verticalAlign=top;childLayout=stackLayout;horizontal=1;startSize=38.857142857142854;horizontalStack=0;resizeParent=1;resizeParentMax=0;resizeLast=0;collapsible=0;marginBottom=0;" vertex="1" parent="1">
          <mxGeometry x="676" y="912" width="241" height="135.85714285714286" as="geometry" />
        </mxCell>
        <mxCell id="C7eEBjci7BhS2FGRMZVI-46" value="+interest_rate: float" style="text;strokeColor=none;fillColor=none;align=left;verticalAlign=top;spacingLeft=4;spacingRight=4;overflow=hidden;rotatable=0;points=[[0,0.5],[1,0.5]];portConstraint=eastwest;" vertex="1" parent="C7eEBjci7BhS2FGRMZVI-45">
          <mxGeometry y="38.857142857142854" width="241" height="39" as="geometry" />
        </mxCell>
        <mxCell id="C7eEBjci7BhS2FGRMZVI-47" value="+type: str" style="text;strokeColor=none;fillColor=none;align=left;verticalAlign=top;spacingLeft=4;spacingRight=4;overflow=hidden;rotatable=0;points=[[0,0.5],[1,0.5]];portConstraint=eastwest;" vertex="1" parent="C7eEBjci7BhS2FGRMZVI-45">
          <mxGeometry y="77.85714285714286" width="241" height="39" as="geometry" />
        </mxCell>
        <mxCell id="C7eEBjci7BhS2FGRMZVI-48" style="line;strokeWidth=1;fillColor=none;align=left;verticalAlign=middle;spacingTop=-1;spacingLeft=3;spacingRight=3;rotatable=0;labelPosition=right;points=[];portConstraint=eastwest;strokeColor=inherit;" vertex="1" parent="C7eEBjci7BhS2FGRMZVI-45">
          <mxGeometry y="116.85714285714286" width="241" height="19" as="geometry" />
        </mxCell>
        <mxCell id="C7eEBjci7BhS2FGRMZVI-49" value="Card" style="swimlane;fontStyle=1;align=center;verticalAlign=top;childLayout=stackLayout;horizontal=1;startSize=30.933333333333334;horizontalStack=0;resizeParent=1;resizeParentMax=0;resizeLast=0;collapsible=0;marginBottom=0;" vertex="1" parent="1">
          <mxGeometry x="1199" y="1612" width="208" height="138.93333333333334" as="geometry" />
        </mxCell>
        <mxCell id="C7eEBjci7BhS2FGRMZVI-50" value="- string __card_number" style="text;strokeColor=none;fillColor=none;align=left;verticalAlign=top;spacingLeft=4;spacingRight=4;overflow=hidden;rotatable=0;points=[[0,0.5],[1,0.5]];portConstraint=eastwest;" vertex="1" parent="C7eEBjci7BhS2FGRMZVI-49">
          <mxGeometry y="30.933333333333334" width="208" height="31" as="geometry" />
        </mxCell>
        <mxCell id="C7eEBjci7BhS2FGRMZVI-51" value="- Account __account" style="text;strokeColor=none;fillColor=none;align=left;verticalAlign=top;spacingLeft=4;spacingRight=4;overflow=hidden;rotatable=0;points=[[0,0.5],[1,0.5]];portConstraint=eastwest;" vertex="1" parent="C7eEBjci7BhS2FGRMZVI-49">
          <mxGeometry y="61.93333333333334" width="208" height="31" as="geometry" />
        </mxCell>
        <mxCell id="C7eEBjci7BhS2FGRMZVI-52" value="- string __pin" style="text;strokeColor=none;fillColor=none;align=left;verticalAlign=top;spacingLeft=4;spacingRight=4;overflow=hidden;rotatable=0;points=[[0,0.5],[1,0.5]];portConstraint=eastwest;" vertex="1" parent="C7eEBjci7BhS2FGRMZVI-49">
          <mxGeometry y="92.93333333333334" width="208" height="31" as="geometry" />
        </mxCell>
        <mxCell id="C7eEBjci7BhS2FGRMZVI-56" style="line;strokeWidth=1;fillColor=none;align=left;verticalAlign=middle;spacingTop=-1;spacingLeft=3;spacingRight=3;rotatable=0;labelPosition=right;points=[];portConstraint=eastwest;strokeColor=inherit;" vertex="1" parent="C7eEBjci7BhS2FGRMZVI-49">
          <mxGeometry y="123.93333333333334" width="208" height="15" as="geometry" />
        </mxCell>
        <mxCell id="C7eEBjci7BhS2FGRMZVI-57" value="ATMCard" style="swimlane;fontStyle=1;align=center;verticalAlign=top;childLayout=stackLayout;horizontal=1;startSize=44.8;horizontalStack=0;resizeParent=1;resizeParentMax=0;resizeLast=0;collapsible=0;marginBottom=0;" vertex="1" parent="1">
          <mxGeometry x="1241" y="1310" width="123" height="111.8" as="geometry" />
        </mxCell>
        <mxCell id="C7eEBjci7BhS2FGRMZVI-58" value="+ fee: int" style="text;strokeColor=none;fillColor=none;align=left;verticalAlign=top;spacingLeft=4;spacingRight=4;overflow=hidden;rotatable=0;points=[[0,0.5],[1,0.5]];portConstraint=eastwest;" vertex="1" parent="C7eEBjci7BhS2FGRMZVI-57">
          <mxGeometry y="44.8" width="123" height="45" as="geometry" />
        </mxCell>
        <mxCell id="C7eEBjci7BhS2FGRMZVI-59" style="line;strokeWidth=1;fillColor=none;align=left;verticalAlign=middle;spacingTop=-1;spacingLeft=3;spacingRight=3;rotatable=0;labelPosition=right;points=[];portConstraint=eastwest;strokeColor=inherit;" vertex="1" parent="C7eEBjci7BhS2FGRMZVI-57">
          <mxGeometry y="89.8" width="123" height="22" as="geometry" />
        </mxCell>
        <mxCell id="C7eEBjci7BhS2FGRMZVI-60" value="DebitCard" style="swimlane;fontStyle=1;align=center;verticalAlign=top;childLayout=stackLayout;horizontal=1;startSize=44.8;horizontalStack=0;resizeParent=1;resizeParentMax=0;resizeLast=0;collapsible=0;marginBottom=0;" vertex="1" parent="1">
          <mxGeometry x="1415" y="1310" width="128" height="111.8" as="geometry" />
        </mxCell>
        <mxCell id="C7eEBjci7BhS2FGRMZVI-61" value="+ fee: int" style="text;strokeColor=none;fillColor=none;align=left;verticalAlign=top;spacingLeft=4;spacingRight=4;overflow=hidden;rotatable=0;points=[[0,0.5],[1,0.5]];portConstraint=eastwest;" vertex="1" parent="C7eEBjci7BhS2FGRMZVI-60">
          <mxGeometry y="44.8" width="128" height="45" as="geometry" />
        </mxCell>
        <mxCell id="C7eEBjci7BhS2FGRMZVI-62" style="line;strokeWidth=1;fillColor=none;align=left;verticalAlign=middle;spacingTop=-1;spacingLeft=3;spacingRight=3;rotatable=0;labelPosition=right;points=[];portConstraint=eastwest;strokeColor=inherit;" vertex="1" parent="C7eEBjci7BhS2FGRMZVI-60">
          <mxGeometry y="89.8" width="128" height="22" as="geometry" />
        </mxCell>
        <mxCell id="C7eEBjci7BhS2FGRMZVI-63" value="ATMMachine" style="swimlane;fontStyle=1;align=center;verticalAlign=top;childLayout=stackLayout;horizontal=1;startSize=31.11111111111111;horizontalStack=0;resizeParent=1;resizeParentMax=0;resizeLast=0;collapsible=0;marginBottom=0;" vertex="1" parent="1">
          <mxGeometry x="1511" y="840" width="514" height="225.11111111111111" as="geometry" />
        </mxCell>
        <mxCell id="C7eEBjci7BhS2FGRMZVI-64" value="- string __atmmachine_id" style="text;strokeColor=none;fillColor=none;align=left;verticalAlign=top;spacingLeft=4;spacingRight=4;overflow=hidden;rotatable=0;points=[[0,0.5],[1,0.5]];portConstraint=eastwest;" vertex="1" parent="C7eEBjci7BhS2FGRMZVI-63">
          <mxGeometry y="31.11111111111111" width="514" height="31" as="geometry" />
        </mxCell>
        <mxCell id="C7eEBjci7BhS2FGRMZVI-65" value="- float __atm_balance" style="text;strokeColor=none;fillColor=none;align=left;verticalAlign=top;spacingLeft=4;spacingRight=4;overflow=hidden;rotatable=0;points=[[0,0.5],[1,0.5]];portConstraint=eastwest;" vertex="1" parent="C7eEBjci7BhS2FGRMZVI-63">
          <mxGeometry y="62.111111111111114" width="514" height="31" as="geometry" />
        </mxCell>
        <mxCell id="C7eEBjci7BhS2FGRMZVI-68" style="line;strokeWidth=1;fillColor=none;align=left;verticalAlign=middle;spacingTop=-1;spacingLeft=3;spacingRight=3;rotatable=0;labelPosition=right;points=[];portConstraint=eastwest;strokeColor=inherit;" vertex="1" parent="C7eEBjci7BhS2FGRMZVI-63">
          <mxGeometry y="93.11111111111111" width="514" height="8" as="geometry" />
        </mxCell>
        <mxCell id="C7eEBjci7BhS2FGRMZVI-69" value="+ insert_card(card: Card, pin: str)" style="text;strokeColor=none;fillColor=none;align=left;verticalAlign=top;spacingLeft=4;spacingRight=4;overflow=hidden;rotatable=0;points=[[0,0.5],[1,0.5]];portConstraint=eastwest;" vertex="1" parent="C7eEBjci7BhS2FGRMZVI-63">
          <mxGeometry y="101.11111111111111" width="514" height="31" as="geometry" />
        </mxCell>
        <mxCell id="C7eEBjci7BhS2FGRMZVI-70" value="+ deposit(account: Account, amount: float)" style="text;strokeColor=none;fillColor=none;align=left;verticalAlign=top;spacingLeft=4;spacingRight=4;overflow=hidden;rotatable=0;points=[[0,0.5],[1,0.5]];portConstraint=eastwest;" vertex="1" parent="C7eEBjci7BhS2FGRMZVI-63">
          <mxGeometry y="132.11111111111111" width="514" height="31" as="geometry" />
        </mxCell>
        <mxCell id="C7eEBjci7BhS2FGRMZVI-71" value="+ withdraw(account: Account, amount: float)" style="text;strokeColor=none;fillColor=none;align=left;verticalAlign=top;spacingLeft=4;spacingRight=4;overflow=hidden;rotatable=0;points=[[0,0.5],[1,0.5]];portConstraint=eastwest;" vertex="1" parent="C7eEBjci7BhS2FGRMZVI-63">
          <mxGeometry y="163.11111111111111" width="514" height="31" as="geometry" />
        </mxCell>
        <mxCell id="C7eEBjci7BhS2FGRMZVI-72" value="+ transfer(sender: Account, receiver: Account, amount: float)" style="text;strokeColor=none;fillColor=none;align=left;verticalAlign=top;spacingLeft=4;spacingRight=4;overflow=hidden;rotatable=0;points=[[0,0.5],[1,0.5]];portConstraint=eastwest;" vertex="1" parent="C7eEBjci7BhS2FGRMZVI-63">
          <mxGeometry y="194.11111111111111" width="514" height="31" as="geometry" />
        </mxCell>
        <mxCell id="C7eEBjci7BhS2FGRMZVI-73" value="Transaction" style="swimlane;fontStyle=1;align=center;verticalAlign=top;childLayout=stackLayout;horizontal=1;startSize=32;horizontalStack=0;resizeParent=1;resizeParentMax=0;resizeLast=0;collapsible=0;marginBottom=0;" vertex="1" parent="1">
          <mxGeometry x="2074" y="876" width="261" height="208" as="geometry" />
        </mxCell>
        <mxCell id="C7eEBjci7BhS2FGRMZVI-74" value="- string __transaction_type" style="text;strokeColor=none;fillColor=none;align=left;verticalAlign=top;spacingLeft=4;spacingRight=4;overflow=hidden;rotatable=0;points=[[0,0.5],[1,0.5]];portConstraint=eastwest;" vertex="1" parent="C7eEBjci7BhS2FGRMZVI-73">
          <mxGeometry y="32" width="261" height="32" as="geometry" />
        </mxCell>
        <mxCell id="C7eEBjci7BhS2FGRMZVI-75" value="- float __amount" style="text;strokeColor=none;fillColor=none;align=left;verticalAlign=top;spacingLeft=4;spacingRight=4;overflow=hidden;rotatable=0;points=[[0,0.5],[1,0.5]];portConstraint=eastwest;" vertex="1" parent="C7eEBjci7BhS2FGRMZVI-73">
          <mxGeometry y="64" width="261" height="32" as="geometry" />
        </mxCell>
        <mxCell id="C7eEBjci7BhS2FGRMZVI-76" value="- string __ATMMachine_id" style="text;strokeColor=none;fillColor=none;align=left;verticalAlign=top;spacingLeft=4;spacingRight=4;overflow=hidden;rotatable=0;points=[[0,0.5],[1,0.5]];portConstraint=eastwest;" vertex="1" parent="C7eEBjci7BhS2FGRMZVI-73">
          <mxGeometry y="96" width="261" height="32" as="geometry" />
        </mxCell>
        <mxCell id="C7eEBjci7BhS2FGRMZVI-77" value="- string __target_account" style="text;strokeColor=none;fillColor=none;align=left;verticalAlign=top;spacingLeft=4;spacingRight=4;overflow=hidden;rotatable=0;points=[[0,0.5],[1,0.5]];portConstraint=eastwest;" vertex="1" parent="C7eEBjci7BhS2FGRMZVI-73">
          <mxGeometry y="128" width="261" height="32" as="geometry" />
        </mxCell>
        <mxCell id="C7eEBjci7BhS2FGRMZVI-78" value="- string __source" style="text;strokeColor=none;fillColor=none;align=left;verticalAlign=top;spacingLeft=4;spacingRight=4;overflow=hidden;rotatable=0;points=[[0,0.5],[1,0.5]];portConstraint=eastwest;" vertex="1" parent="C7eEBjci7BhS2FGRMZVI-73">
          <mxGeometry y="160" width="261" height="32" as="geometry" />
        </mxCell>
        <mxCell id="C7eEBjci7BhS2FGRMZVI-79" style="line;strokeWidth=1;fillColor=none;align=left;verticalAlign=middle;spacingTop=-1;spacingLeft=3;spacingRight=3;rotatable=0;labelPosition=right;points=[];portConstraint=eastwest;strokeColor=inherit;" vertex="1" parent="C7eEBjci7BhS2FGRMZVI-73">
          <mxGeometry y="192" width="261" height="16" as="geometry" />
        </mxCell>
        <mxCell id="C7eEBjci7BhS2FGRMZVI-80" value="Seller" style="swimlane;fontStyle=1;align=center;verticalAlign=top;childLayout=stackLayout;horizontal=1;startSize=30.4;horizontalStack=0;resizeParent=1;resizeParentMax=0;resizeLast=0;collapsible=0;marginBottom=0;" vertex="1" parent="1">
          <mxGeometry x="979" y="478" width="469" height="308.4" as="geometry" />
        </mxCell>
        <mxCell id="C7eEBjci7BhS2FGRMZVI-81" value="- string __seller_id" style="text;strokeColor=none;fillColor=none;align=left;verticalAlign=top;spacingLeft=4;spacingRight=4;overflow=hidden;rotatable=0;points=[[0,0.5],[1,0.5]];portConstraint=eastwest;" vertex="1" parent="C7eEBjci7BhS2FGRMZVI-80">
          <mxGeometry y="30.4" width="469" height="30" as="geometry" />
        </mxCell>
        <mxCell id="C7eEBjci7BhS2FGRMZVI-82" value="- string __name" style="text;strokeColor=none;fillColor=none;align=left;verticalAlign=top;spacingLeft=4;spacingRight=4;overflow=hidden;rotatable=0;points=[[0,0.5],[1,0.5]];portConstraint=eastwest;" vertex="1" parent="C7eEBjci7BhS2FGRMZVI-80">
          <mxGeometry y="60.4" width="469" height="30" as="geometry" />
        </mxCell>
        <mxCell id="C7eEBjci7BhS2FGRMZVI-83" value="- list __edc_list" style="text;strokeColor=none;fillColor=none;align=left;verticalAlign=top;spacingLeft=4;spacingRight=4;overflow=hidden;rotatable=0;points=[[0,0.5],[1,0.5]];portConstraint=eastwest;" vertex="1" parent="C7eEBjci7BhS2FGRMZVI-80">
          <mxGeometry y="90.4" width="469" height="30" as="geometry" />
        </mxCell>
        <mxCell id="C7eEBjci7BhS2FGRMZVI-84" value="+ string seller_id" style="text;strokeColor=none;fillColor=none;align=left;verticalAlign=top;spacingLeft=4;spacingRight=4;overflow=hidden;rotatable=0;points=[[0,0.5],[1,0.5]];portConstraint=eastwest;" vertex="1" parent="C7eEBjci7BhS2FGRMZVI-80">
          <mxGeometry y="120.4" width="469" height="30" as="geometry" />
        </mxCell>
        <mxCell id="C7eEBjci7BhS2FGRMZVI-85" value="+ string name" style="text;strokeColor=none;fillColor=none;align=left;verticalAlign=top;spacingLeft=4;spacingRight=4;overflow=hidden;rotatable=0;points=[[0,0.5],[1,0.5]];portConstraint=eastwest;" vertex="1" parent="C7eEBjci7BhS2FGRMZVI-80">
          <mxGeometry y="150.4" width="469" height="30" as="geometry" />
        </mxCell>
        <mxCell id="C7eEBjci7BhS2FGRMZVI-86" value="+ list edc_list" style="text;strokeColor=none;fillColor=none;align=left;verticalAlign=top;spacingLeft=4;spacingRight=4;overflow=hidden;rotatable=0;points=[[0,0.5],[1,0.5]];portConstraint=eastwest;" vertex="1" parent="C7eEBjci7BhS2FGRMZVI-80">
          <mxGeometry y="180.4" width="469" height="30" as="geometry" />
        </mxCell>
        <mxCell id="C7eEBjci7BhS2FGRMZVI-87" style="line;strokeWidth=1;fillColor=none;align=left;verticalAlign=middle;spacingTop=-1;spacingLeft=3;spacingRight=3;rotatable=0;labelPosition=right;points=[];portConstraint=eastwest;strokeColor=inherit;" vertex="1" parent="C7eEBjci7BhS2FGRMZVI-80">
          <mxGeometry y="210.4" width="469" height="8" as="geometry" />
        </mxCell>
        <mxCell id="C7eEBjci7BhS2FGRMZVI-88" value="+ add_edc(edc)" style="text;strokeColor=none;fillColor=none;align=left;verticalAlign=top;spacingLeft=4;spacingRight=4;overflow=hidden;rotatable=0;points=[[0,0.5],[1,0.5]];portConstraint=eastwest;" vertex="1" parent="C7eEBjci7BhS2FGRMZVI-80">
          <mxGeometry y="218.4" width="469" height="30" as="geometry" />
        </mxCell>
        <mxCell id="C7eEBjci7BhS2FGRMZVI-89" value="+ search_edc_from_number(edc_number: str)" style="text;strokeColor=none;fillColor=none;align=left;verticalAlign=top;spacingLeft=4;spacingRight=4;overflow=hidden;rotatable=0;points=[[0,0.5],[1,0.5]];portConstraint=eastwest;" vertex="1" parent="C7eEBjci7BhS2FGRMZVI-80">
          <mxGeometry y="248.4" width="469" height="30" as="geometry" />
        </mxCell>
        <mxCell id="C7eEBjci7BhS2FGRMZVI-90" value="+ paid(card: Card, amount: float, seller_account: Account)" style="text;strokeColor=none;fillColor=none;align=left;verticalAlign=top;spacingLeft=4;spacingRight=4;overflow=hidden;rotatable=0;points=[[0,0.5],[1,0.5]];portConstraint=eastwest;" vertex="1" parent="C7eEBjci7BhS2FGRMZVI-80">
          <mxGeometry y="278.4" width="469" height="30" as="geometry" />
        </mxCell>
        <mxCell id="C7eEBjci7BhS2FGRMZVI-91" value="EDCmachine" style="swimlane;fontStyle=1;align=center;verticalAlign=top;childLayout=stackLayout;horizontal=1;startSize=34.666666666666664;horizontalStack=0;resizeParent=1;resizeParentMax=0;resizeLast=0;collapsible=0;marginBottom=0;" vertex="1" parent="1">
          <mxGeometry x="967" y="876" width="494" height="217.66666666666666" as="geometry" />
        </mxCell>
        <mxCell id="C7eEBjci7BhS2FGRMZVI-92" value="- string __edc_id" style="text;strokeColor=none;fillColor=none;align=left;verticalAlign=top;spacingLeft=4;spacingRight=4;overflow=hidden;rotatable=0;points=[[0,0.5],[1,0.5]];portConstraint=eastwest;" vertex="1" parent="C7eEBjci7BhS2FGRMZVI-91">
          <mxGeometry y="34.666666666666664" width="494" height="35" as="geometry" />
        </mxCell>
        <mxCell id="C7eEBjci7BhS2FGRMZVI-93" value="- Seller __seller" style="text;strokeColor=none;fillColor=none;align=left;verticalAlign=top;spacingLeft=4;spacingRight=4;overflow=hidden;rotatable=0;points=[[0,0.5],[1,0.5]];portConstraint=eastwest;" vertex="1" parent="C7eEBjci7BhS2FGRMZVI-91">
          <mxGeometry y="69.66666666666666" width="494" height="35" as="geometry" />
        </mxCell>
        <mxCell id="C7eEBjci7BhS2FGRMZVI-94" value="+ string edc_id" style="text;strokeColor=none;fillColor=none;align=left;verticalAlign=top;spacingLeft=4;spacingRight=4;overflow=hidden;rotatable=0;points=[[0,0.5],[1,0.5]];portConstraint=eastwest;" vertex="1" parent="C7eEBjci7BhS2FGRMZVI-91">
          <mxGeometry y="104.66666666666666" width="494" height="35" as="geometry" />
        </mxCell>
        <mxCell id="C7eEBjci7BhS2FGRMZVI-95" value="+ Seller seller" style="text;strokeColor=none;fillColor=none;align=left;verticalAlign=top;spacingLeft=4;spacingRight=4;overflow=hidden;rotatable=0;points=[[0,0.5],[1,0.5]];portConstraint=eastwest;" vertex="1" parent="C7eEBjci7BhS2FGRMZVI-91">
          <mxGeometry y="139.66666666666666" width="494" height="35" as="geometry" />
        </mxCell>
        <mxCell id="C7eEBjci7BhS2FGRMZVI-96" style="line;strokeWidth=1;fillColor=none;align=left;verticalAlign=middle;spacingTop=-1;spacingLeft=3;spacingRight=3;rotatable=0;labelPosition=right;points=[];portConstraint=eastwest;strokeColor=inherit;" vertex="1" parent="C7eEBjci7BhS2FGRMZVI-91">
          <mxGeometry y="174.66666666666666" width="494" height="8" as="geometry" />
        </mxCell>
        <mxCell id="C7eEBjci7BhS2FGRMZVI-97" value="+ paid(card: Card, amount: float, seller_account: Account)" style="text;strokeColor=none;fillColor=none;align=left;verticalAlign=top;spacingLeft=4;spacingRight=4;overflow=hidden;rotatable=0;points=[[0,0.5],[1,0.5]];portConstraint=eastwest;" vertex="1" parent="C7eEBjci7BhS2FGRMZVI-91">
          <mxGeometry y="182.66666666666666" width="494" height="35" as="geometry" />
        </mxCell>
        <mxCell id="C7eEBjci7BhS2FGRMZVI-98" value="" style="curved=1;startArrow=diamondThin;startSize=14;startFill=0;endArrow=none;exitX=0;exitY=0.68;entryX=0.5;entryY=0;rounded=0;" edge="1" parent="1" source="C7eEBjci7BhS2FGRMZVI-1" target="C7eEBjci7BhS2FGRMZVI-16">
          <mxGeometry relative="1" as="geometry">
            <Array as="points">
              <mxPoint x="183" y="453" />
            </Array>
          </mxGeometry>
        </mxCell>
        <mxCell id="C7eEBjci7BhS2FGRMZVI-99" value="" style="curved=1;startArrow=diamondThin;startSize=14;startFill=0;endArrow=none;exitX=1;exitY=0.68;entryX=0.5;entryY=0;rounded=0;" edge="1" parent="1" source="C7eEBjci7BhS2FGRMZVI-1" target="C7eEBjci7BhS2FGRMZVI-63">
          <mxGeometry relative="1" as="geometry">
            <Array as="points">
              <mxPoint x="1767" y="453" />
            </Array>
          </mxGeometry>
        </mxCell>
        <mxCell id="C7eEBjci7BhS2FGRMZVI-100" value="" style="curved=1;startArrow=diamondThin;startSize=14;startFill=0;endArrow=none;exitX=0.92;exitY=1;entryX=0.5;entryY=0;rounded=0;" edge="1" parent="1" source="C7eEBjci7BhS2FGRMZVI-1" target="C7eEBjci7BhS2FGRMZVI-80">
          <mxGeometry relative="1" as="geometry">
            <Array as="points">
              <mxPoint x="1214" y="453" />
            </Array>
          </mxGeometry>
        </mxCell>
        <mxCell id="C7eEBjci7BhS2FGRMZVI-101" value="" style="curved=1;startArrow=diamondThin;startSize=14;startFill=0;endArrow=none;exitX=0.5;exitY=1;entryX=0;entryY=0.37;rounded=0;" edge="1" parent="1" source="C7eEBjci7BhS2FGRMZVI-16" target="C7eEBjci7BhS2FGRMZVI-26">
          <mxGeometry relative="1" as="geometry">
            <Array as="points">
              <mxPoint x="183" y="1153" />
            </Array>
          </mxGeometry>
        </mxCell>
        <mxCell id="C7eEBjci7BhS2FGRMZVI-102" value="" style="curved=1;startArrow=none;startSize=14;startFill=0;endArrow=open;exitX=0.5;exitY=1;entryX=0;entryY=0.29;rounded=0;endFill=0;" edge="1" parent="1" source="C7eEBjci7BhS2FGRMZVI-26" target="C7eEBjci7BhS2FGRMZVI-49">
          <mxGeometry relative="1" as="geometry">
            <Array as="points">
              <mxPoint x="1005" y="1587" />
            </Array>
          </mxGeometry>
        </mxCell>
        <mxCell id="C7eEBjci7BhS2FGRMZVI-103" value="" style="curved=1;startArrow=none;startSize=16;startFill=0;endArrow=block;exitX=0.5;exitY=1;entryX=0;entryY=0.29;rounded=0;endFill=0;" edge="1" parent="1" source="C7eEBjci7BhS2FGRMZVI-40" target="C7eEBjci7BhS2FGRMZVI-26">
          <mxGeometry relative="1" as="geometry">
            <Array as="points">
              <mxPoint x="511" y="1153" />
            </Array>
          </mxGeometry>
        </mxCell>
        <mxCell id="C7eEBjci7BhS2FGRMZVI-104" value="" style="curved=1;startArrow=none;startSize=16;startFill=0;endArrow=block;exitX=0.5;exitY=1;entryX=0;entryY=0;rounded=0;endFill=0;" edge="1" parent="1" source="C7eEBjci7BhS2FGRMZVI-45" target="C7eEBjci7BhS2FGRMZVI-26">
          <mxGeometry relative="1" as="geometry">
            <Array as="points">
              <mxPoint x="796" y="1153" />
            </Array>
          </mxGeometry>
        </mxCell>
        <mxCell id="C7eEBjci7BhS2FGRMZVI-105" value="" style="curved=1;startArrow=none;startSize=16;startFill=0;endArrow=block;exitX=0.5;exitY=1;entryX=0.5;entryY=0;rounded=0;endFill=0;" edge="1" parent="1" source="C7eEBjci7BhS2FGRMZVI-57" target="C7eEBjci7BhS2FGRMZVI-49">
          <mxGeometry relative="1" as="geometry">
            <Array as="points" />
          </mxGeometry>
        </mxCell>
        <mxCell id="C7eEBjci7BhS2FGRMZVI-106" value="" style="curved=1;startArrow=none;startSize=16;startFill=0;endArrow=block;exitX=0.5;exitY=1;entryX=1;entryY=0.14;rounded=0;endFill=0;" edge="1" parent="1" source="C7eEBjci7BhS2FGRMZVI-60" target="C7eEBjci7BhS2FGRMZVI-49">
          <mxGeometry relative="1" as="geometry">
            <Array as="points">
              <mxPoint x="1479" y="1587" />
            </Array>
          </mxGeometry>
        </mxCell>
        <mxCell id="C7eEBjci7BhS2FGRMZVI-107" value="" style="curved=1;startArrow=diamondThin;startSize=14;startFill=0;endArrow=none;exitX=0.5;exitY=1;entryX=0.5;entryY=0;rounded=0;" edge="1" parent="1" source="C7eEBjci7BhS2FGRMZVI-80" target="C7eEBjci7BhS2FGRMZVI-91">
          <mxGeometry relative="1" as="geometry">
            <Array as="points" />
          </mxGeometry>
        </mxCell>
        <mxCell id="C7eEBjci7BhS2FGRMZVI-109" value="" style="curved=1;startArrow=none;startSize=14;startFill=0;endArrow=none;exitX=0.5;exitY=1;entryX=1;entryY=0.36;rounded=0;dashed=1;" edge="1" parent="1" source="C7eEBjci7BhS2FGRMZVI-63" target="C7eEBjci7BhS2FGRMZVI-26">
          <mxGeometry relative="1" as="geometry">
            <Array as="points">
              <mxPoint x="1767" y="1153" />
            </Array>
          </mxGeometry>
        </mxCell>
        <mxCell id="C7eEBjci7BhS2FGRMZVI-110" value="" style="curved=1;startArrow=none;startSize=14;startFill=0;endArrow=diamondThin;exitX=0.5;exitY=1;entryX=1;entryY=0.41;rounded=0;endFill=1;" edge="1" parent="1" source="C7eEBjci7BhS2FGRMZVI-73" target="C7eEBjci7BhS2FGRMZVI-26">
          <mxGeometry relative="1" as="geometry">
            <Array as="points">
              <mxPoint x="2205" y="1153" />
            </Array>
          </mxGeometry>
        </mxCell>
        <mxCell id="C7eEBjci7BhS2FGRMZVI-113" style="edgeStyle=orthogonalEdgeStyle;rounded=0;orthogonalLoop=1;jettySize=auto;html=1;entryX=1;entryY=0.5;entryDx=0;entryDy=0;dashed=1;endArrow=none;startFill=0;" edge="1" parent="1" source="C7eEBjci7BhS2FGRMZVI-97" target="C7eEBjci7BhS2FGRMZVI-51">
          <mxGeometry relative="1" as="geometry">
            <Array as="points">
              <mxPoint x="1610" y="1076" />
              <mxPoint x="1610" y="1689" />
            </Array>
          </mxGeometry>
        </mxCell>
      </root>
    </mxGraphModel>
  </diagram>
</mxfile>
